<mxfile host="app.diagrams.net" modified="2020-04-05T19:05:48.244Z" agent="5.0 (Windows NT 10.0; Win64; x64) AppleWebKit/537.36 (KHTML, like Gecko) Chrome/80.0.3987.149 Safari/537.36" etag="_yy3JsBus2B0t1ffWKuL" version="12.9.8" type="github">
  <diagram id="LyOUqta0QA1Pe948f9OV" name="Page-1">
    <mxGraphModel dx="782" dy="437" grid="1" gridSize="10" guides="1" tooltips="1" connect="1" arrows="1" fold="1" page="1" pageScale="1" pageWidth="850" pageHeight="1100" math="0" shadow="0">
      <root>
        <mxCell id="0" />
        <mxCell id="1" parent="0" />
        <mxCell id="NHNP4FbekGqIauJUKJB9-3" value="" style="edgeStyle=orthogonalEdgeStyle;rounded=0;orthogonalLoop=1;jettySize=auto;html=1;" edge="1" parent="1" source="NHNP4FbekGqIauJUKJB9-1" target="NHNP4FbekGqIauJUKJB9-2">
          <mxGeometry relative="1" as="geometry" />
        </mxCell>
        <mxCell id="NHNP4FbekGqIauJUKJB9-1" value="test" style="rounded=0;whiteSpace=wrap;html=1;" vertex="1" parent="1">
          <mxGeometry x="340" y="200" width="120" height="60" as="geometry" />
        </mxCell>
        <mxCell id="NHNP4FbekGqIauJUKJB9-2" value="test" style="rounded=0;whiteSpace=wrap;html=1;" vertex="1" parent="1">
          <mxGeometry x="340" y="340" width="120" height="60" as="geometry" />
        </mxCell>
      </root>
    </mxGraphModel>
  </diagram>
</mxfile>
